<?xml version="1.0" encoding="UTF-8"?>
<svg xmlns="http://www.w3.org/2000/svg" viewBox="0 0 1700 1060">
  <defs>
    <style>
      * { font-family: "Courier New", monospace; }
      .title { font-size: 36px; font-weight: 700; fill: #00d9ff; }
      .phase-title { font-size: 22px; font-weight: 700; fill: #00ffaa; }
      .stage-title { font-size: 17px; font-weight: 700; }
      .label { font-size: 15px; fill: #00ffaa; font-weight: 600; }
      .data-label { font-size: 12px; fill: #00d9ff; font-weight: 500; }
      .phase-label { font-size: 14px; fill: #0099ff; font-style: italic; }
      .description { font-size: 13px; fill: #00d9ff; opacity: 0.95; }
      .summary { font-size: 12px; fill: #aaffff; opacity: 0.9; }
      .note { font-size: 12px; fill: #aaffff; opacity: 0.85; }
    </style>
    <marker id="arrowhead-cyan" markerWidth="12" markerHeight="9" refX="11" refY="4.5" orient="auto">
      <polygon points="0 0, 12 4.5, 0 9" fill="#00ffaa" />
    </marker>
    <marker id="arrowhead-purple" markerWidth="12" markerHeight="9" refX="11" refY="4.5" orient="auto">
      <polygon points="0 0, 12 4.5, 0 9" fill="#ff00ff" />
    </marker>
    <marker id="arrowhead-teal" markerWidth="12" markerHeight="9" refX="11" refY="4.5" orient="auto">
      <polygon points="0 0, 12 4.5, 0 9" fill="#00d9ff" />
    </marker>
    <filter id="glow" x="-50%" y="-50%" width="200%" height="200%">
      <feGaussianBlur stdDeviation="2" result="coloredBlur"/>
      <feMerge>
        <feMergeNode in="coloredBlur"/>
        <feMergeNode in="SourceGraphic"/>
      </feMerge>
    </filter>
    <pattern id="grid" width="20" height="20" patternUnits="userSpaceOnUse">
      <path d="M 20 0 L 0 0 0 20" fill="none" stroke="#0a2540" stroke-width="0.5"/>
    </pattern>
  </defs>
  <rect width="1700" height="1060" fill="#0a1628"/>
  <rect width="1700" height="1060" fill="url(#grid)"/>
  <text x="850" y="45" class="title" text-anchor="middle" filter="url(#glow)">HyDE RAG Data Flow Architecture</text>

  <!-- OFFLINE PHASE -->
  <rect x="30" y="70" width="1640" height="280" fill="none" stroke="#0099ff" stroke-width="2.5" stroke-dasharray="8,4" rx="12" opacity="0.6"/>
  <text x="55" y="108" class="phase-title">[OFFLINE PHASE]</text>
  <text x="55" y="132" class="phase-label">Indexing &amp; Vector Store Preparation (One-Time — Real Documents Only)</text>
  <rect x="55" y="148" width="1590" height="55" fill="none" stroke="#00ffaa" stroke-width="1.5" opacity="0.4" rx="6"/>
  <text x="70" y="168" class="summary" font-weight="600">📌 SUMMARY: Identical to Naive RAG — real documents are chunked, embedded, and indexed into a</text>
  <text x="70" y="188" class="summary">vector store once. HyDE's hypothetical-document trick only changes the ONLINE retrieval step below.</text>
  <g filter="url(#glow)">
    <rect x="55" y="235" width="190" height="100" fill="none" stroke="#00d9ff" stroke-width="3" rx="10"/>
    <rect x="60" y="240" width="180" height="90" fill="none" stroke="#00ffaa" stroke-width="1.5" opacity="0.4" rx="8"/>
    <text x="150.0" y="269" class="label" text-anchor="middle" font-size="18">📄 Documents</text>
    <text x="150.0" y="293" class="data-label" text-anchor="middle">Raw Text</text>
  </g>
  <line x1="245" y1="285" x2="315" y2="285" stroke="#00ffaa" stroke-width="3.5" marker-end="url(#arrowhead-cyan)"/>
  <rect x="252.0" y="271" width="56" height="26" fill="#0a1628" opacity="0.95"/>
  <text x="280.0" y="290" class="data-label" text-anchor="middle" font-size="12" font-weight="600">Split</text>
  <g filter="url(#glow)">
    <rect x="315" y="235" width="190" height="100" fill="none" stroke="#00d9ff" stroke-width="3" rx="10"/>
    <rect x="320" y="240" width="180" height="90" fill="none" stroke="#ffaa00" stroke-width="1.5" opacity="0.4" rx="8"/>
    <text x="410.0" y="269" class="label" text-anchor="middle" font-size="18">✂️ Chunks</text>
    <text x="410.0" y="293" class="data-label" text-anchor="middle">512 tok, overlap=50</text>
  </g>
  <line x1="505" y1="285" x2="575" y2="285" stroke="#00ffaa" stroke-width="3.5" marker-end="url(#arrowhead-cyan)"/>
  <rect x="512.0" y="271" width="56" height="26" fill="#0a1628" opacity="0.95"/>
  <text x="540.0" y="290" class="data-label" text-anchor="middle" font-size="12" font-weight="600">Embed</text>
  <g filter="url(#glow)">
    <rect x="575" y="235" width="190" height="100" fill="none" stroke="#00d9ff" stroke-width="3" rx="10"/>
    <rect x="580" y="240" width="180" height="90" fill="none" stroke="#aa00ff" stroke-width="1.5" opacity="0.4" rx="8"/>
    <text x="670.0" y="269" class="label" text-anchor="middle" font-size="18">🧠 Embeddings</text>
    <text x="670.0" y="293" class="data-label" text-anchor="middle">nomic-embed-text</text>
  </g>
  <line x1="765" y1="285" x2="835" y2="285" stroke="#00ffaa" stroke-width="3.5" marker-end="url(#arrowhead-cyan)"/>
  <rect x="772.0" y="271" width="56" height="26" fill="#0a1628" opacity="0.95"/>
  <text x="800.0" y="290" class="data-label" text-anchor="middle" font-size="12" font-weight="600">Store</text>
  <g filter="url(#glow)">
    <rect x="835" y="235" width="190" height="100" fill="none" stroke="#00d9ff" stroke-width="3" rx="10"/>
    <rect x="840" y="240" width="180" height="90" fill="none" stroke="#00d9ff" stroke-width="1.5" opacity="0.4" rx="8"/>
    <text x="930.0" y="269" class="label" text-anchor="middle" font-size="18">💾 Vector Store</text>
    <text x="930.0" y="293" class="data-label" text-anchor="middle">ChromaDB (real docs)</text>
  </g>
  <text x="1155" y="253" class="note" font-weight="600">💡 Same offline pipeline as Naive/Advanced RAG — no changes here</text>

  <!-- ONLINE PHASE -->
  <text x="55" y="418" class="phase-title">[ONLINE PHASE]</text>
  <text x="55" y="442" class="phase-label">Hypothetical Generation → Retrieval → Grounded Generation (Per Query)</text>
  <rect x="55" y="458" width="1590" height="70" fill="none" stroke="#00ffaa" stroke-width="1.5" opacity="0.4" rx="6"/>
  <text x="70" y="480" class="summary" font-weight="600">📌 SUMMARY: Instead of embedding the raw query, an LLM first writes a hypothetical "ideal"</text>
  <text x="70" y="496" class="summary">answer. That hypothetical document is embedded and used to search real documents — its</text>
  <text x="70" y="512" class="summary">embedding sits closer in vector space to real passages than a short question would.</text>
  <rect x="30" y="370" width="1640" height="610" fill="none" stroke="#0099ff" stroke-width="2.5" stroke-dasharray="8,4" rx="12" opacity="0.6"/>

  <!-- Stage 1: Hypothetical Generation -->
  <rect x="50" y="550" width="1600" height="165" fill="none" stroke="#4ac0ff" stroke-width="2" stroke-dasharray="6,3" rx="10" opacity="0.7"/>
  <text x="70" y="574" class="stage-title" fill="#4ac0ff">① HYPOTHETICAL GENERATION — Query Transformation</text>
  <g filter="url(#glow)">
    <rect x="70" y="590" width="190" height="100" fill="none" stroke="#00d9ff" stroke-width="3" rx="10"/>
    <rect x="75" y="595" width="180" height="90" fill="none" stroke="#ff00ff" stroke-width="1.5" opacity="0.4" rx="8"/>
    <text x="165.0" y="624" class="label" text-anchor="middle" font-size="16">❓ Query</text>
    <text x="165.0" y="648" class="data-label" text-anchor="middle">User Input</text>
  </g>
  <line x1="260" y1="640" x2="340" y2="640" stroke="#00ffaa" stroke-width="3.5" marker-end="url(#arrowhead-cyan)"/>
  <rect x="256.0" y="626" width="88" height="26" fill="#0a1628" opacity="0.95"/>
  <text x="300.0" y="645" class="data-label" text-anchor="middle" font-size="12" font-weight="600">Generate</text>
  <g filter="url(#glow)">
    <rect x="340" y="590" width="190" height="100" fill="none" stroke="#00d9ff" stroke-width="3" rx="10"/>
    <rect x="345" y="595" width="180" height="90" fill="none" stroke="#ffaa00" stroke-width="1.5" opacity="0.4" rx="8"/>
    <text x="435.0" y="619" class="label" text-anchor="middle" font-size="16">📝 Hypothetical Doc</text>
    <text x="435.0" y="643" class="data-label" text-anchor="middle">2-4 paragraph</text>
    <text x="435.0" y="661" class="data-label" text-anchor="middle">"ideal" answer (LLM)</text>
  </g>
  <line x1="530" y1="640" x2="610" y2="640" stroke="#00ffaa" stroke-width="3.5" marker-end="url(#arrowhead-cyan)"/>
  <rect x="538.0" y="626" width="64" height="26" fill="#0a1628" opacity="0.95"/>
  <text x="570.0" y="645" class="data-label" text-anchor="middle" font-size="12" font-weight="600">Embed</text>
  <g filter="url(#glow)">
    <rect x="610" y="590" width="190" height="100" fill="none" stroke="#00d9ff" stroke-width="3" rx="10"/>
    <rect x="615" y="595" width="180" height="90" fill="none" stroke="#aa00ff" stroke-width="1.5" opacity="0.4" rx="8"/>
    <text x="705.0" y="619" class="label" text-anchor="middle" font-size="16">🧠 Hyp. Embedding</text>
    <text x="705.0" y="643" class="data-label" text-anchor="middle">Embeds the fake</text>
    <text x="705.0" y="661" class="data-label" text-anchor="middle">answer, not the query</text>
  </g>
  <text x="860" y="628" class="note">💡 Ideal-answer embedding sits closer to real docs than a short query</text>
  <text x="860" y="652" class="note">💡 Hallucination risk: a bad hypothetical doc → bad retrieval</text>

  <!-- Stage 2: Retrieval & Generation -->
  <rect x="50" y="755" width="1600" height="165" fill="none" stroke="#00ffaa" stroke-width="2" stroke-dasharray="6,3" rx="10" opacity="0.7"/>
  <text x="70" y="779" class="stage-title" fill="#00ffaa">② RETRIEVAL &amp; GENERATION — Grounded Answer</text>
  <g filter="url(#glow)">
    <rect x="70" y="795" width="190" height="100" fill="none" stroke="#00d9ff" stroke-width="3" rx="10"/>
    <rect x="75" y="800" width="180" height="90" fill="none" stroke="#00d9ff" stroke-width="1.5" opacity="0.4" rx="8"/>
    <text x="165.0" y="824" class="label" text-anchor="middle" font-size="16">🔍 Similarity Search</text>
    <text x="165.0" y="848" class="data-label" text-anchor="middle">kNN vs. real vectors</text>
    <text x="165.0" y="866" class="data-label" text-anchor="middle">k=5</text>
  </g>
  <line x1="260" y1="845" x2="340" y2="845" stroke="#00ffaa" stroke-width="3.5" marker-end="url(#arrowhead-cyan)"/>
  <rect x="266.0" y="831" width="76" height="26" fill="#0a1628" opacity="0.95"/>
  <text x="304.0" y="850" class="data-label" text-anchor="middle" font-size="12" font-weight="600">Retrieve</text>
  <g filter="url(#glow)">
    <rect x="340" y="795" width="190" height="100" fill="none" stroke="#00d9ff" stroke-width="3" rx="10"/>
    <rect x="345" y="800" width="180" height="90" fill="none" stroke="#ffaa00" stroke-width="1.5" opacity="0.4" rx="8"/>
    <text x="435.0" y="824" class="label" text-anchor="middle" font-size="16">📋 Real Context</text>
    <text x="435.0" y="848" class="data-label" text-anchor="middle">Top-K real chunks</text>
    <text x="435.0" y="866" class="data-label" text-anchor="middle">+ original question</text>
  </g>
  <line x1="530" y1="845" x2="610" y2="845" stroke="#00ffaa" stroke-width="3.5" marker-end="url(#arrowhead-cyan)"/>
  <rect x="540.0" y="831" width="60" height="26" fill="#0a1628" opacity="0.95"/>
  <text x="570.0" y="850" class="data-label" text-anchor="middle" font-size="12" font-weight="600">Prompt</text>
  <g filter="url(#glow)">
    <rect x="610" y="795" width="190" height="100" fill="none" stroke="#00d9ff" stroke-width="3" rx="10"/>
    <rect x="615" y="800" width="180" height="90" fill="none" stroke="#00ff00" stroke-width="1.5" opacity="0.4" rx="8"/>
    <text x="705.0" y="824" class="label" text-anchor="middle" font-size="16">✅ LLM Answer</text>
    <text x="705.0" y="848" class="data-label" text-anchor="middle">Grounded response</text>
    <text x="705.0" y="866" class="data-label" text-anchor="middle">hypothetical discarded</text>
  </g>
  <text x="860" y="828" class="note">💡 Hypothetical doc is NEVER shown to the user or final LLM</text>
  <text x="860" y="852" class="note">💡 Only real retrieved docs ground the final answer</text>

  <!-- Stage transition: hypothetical embedding feeds the similarity search -->
  <path d="M 705.0 690 Q 110 742.5 165.0 795" stroke="#ff00ff" stroke-width="3" fill="none" marker-end="url(#arrowhead-purple)" stroke-dasharray="7,5"/>
  <rect x="48.0" y="729.5" width="124" height="24" fill="#0a1628" opacity="0.95"/>
  <text x="110" y="747.5" class="data-label" text-anchor="middle" font-size="12" font-weight="600" fill="#ff00ff">hyp. vector →</text>

  <!-- Reused offline index feeds the similarity search -->
  <path d="M 930.0 335 Q 697.5 565.0 165.0 795" stroke="#00d9ff" stroke-width="3" fill="none" marker-end="url(#arrowhead-teal)" stroke-dasharray="7,5"/>
  <rect x="635.5" y="552.0" width="124" height="24" fill="#0a1628" opacity="0.95"/>
  <text x="697.5" y="570.0" class="data-label" text-anchor="middle" font-size="12" font-weight="600" fill="#00d9ff">reused index</text>

  <!-- LEGEND -->
  <text x="55" y="1000" class="phase-title">[LEGEND]</text>
  <line x1="250" y1="992" x2="295" y2="992" stroke="#00ffaa" stroke-width="3.5" marker-end="url(#arrowhead-cyan)"/>
  <text x="310" y="997" class="data-label" font-size="12" font-weight="600">Primary Data Flow (within stage)</text>
  <line x1="650" y1="992" x2="695" y2="992" stroke="#ff00ff" stroke-width="3" stroke-dasharray="7,5" marker-end="url(#arrowhead-purple)"/>
  <text x="710" y="997" class="data-label" font-size="12" font-weight="600">Stage Transition</text>
  <line x1="990" y1="992" x2="1035" y2="992" stroke="#00d9ff" stroke-width="3" stroke-dasharray="7,5" marker-end="url(#arrowhead-teal)"/>
  <text x="1050" y="997" class="data-label" font-size="12" font-weight="600">Reused Offline Index</text>
</svg>
